# xmcd
#
# Track frame offsets:
#	183
#	30853
#	49818
#	78185
#	105038
#	127743
#	171698
#	195668
#
# Disc length: 2836 seconds
#
# Revision: 1
# Processed by: cddbd v1.4PL0 Copyright (c) Steve Scherf et al.
# Submitted via: audiograbber 1.81.02
#
DISCID=540b1208
DTITLE=Nick Gravenites and John Cipollina - LIVE IN ATHENS AT THE RODON
DYEAR=1991
DGENRE=Blues
TTITLE0=Walkin Blues
TTITLE1=Funky News
TTITLE2=Anna
TTITLE3=Get Together
TTITLE4=Born in Chicago
TTITLE5=Small Walk-in Box
TTITLE6=Four Floors or Forty
TTITLE7=You Can't Hurt Me No More
EXTD=Label - MUSIC BOX INTERNATIONAL SA\n           76 ALIMOY AV. 164 52. ARGYR
EXTD=OYPOLL, ATHENS\n
EXTT0=
EXTT1=
EXTT2=
EXTT3=
EXTT4=
EXTT5=
EXTT6=
EXTT7=
PLAYORDER=
